:SAMPLES-PER-SECOND 30
:FRAME-RANGE 1-1390
:FULLY-SPECIFIED
:DEGREES
1304
root  19.8627 39.3263 -51.0889 -2.24939 -12.162 1.15961
RightUpLeg  -10.6685 -9.88442 -1.6257
RightLeg  24.1177 -0.832603 -0.550931
RightFoot  -11.1833 -0.0787505 2.1275
RightToes  -2.9104e-010 0 -3.6325e-017
Spine  17.4471 -2.6559 3.13507
Spine1  -0.157977 -4.62295 8.84149
HEad  -2.72182 11.8366 -9.80594
LeftShoulder1  2.6224 -3.72619 -30.245
LeftArm  78.2755 -17.7979 -56.7387
LeftForeArm  -20.1553 -16.8035 -13.3778
LeftHand  -0.192784 0.62203 4.66535
RightShoulder  12.0182 19.0338 46.586
RightArm  30.253 8.40375 24.3391
RightForeArm  20.4257 27.5686 4.83929
RightHand  0.219349 3.91048 2.47091
LeftUpLeg  -44.361 43.4698 -20.2604
LeftLeg  32.2655 6.02803 4.42991
LeftFoot  16.1994 1.80534 -7.76701
LeftToes  5.45371e-012 -1.3743e-010 1.09575e-010
1305
root  19.9856 39.6607 -50.7235 -1.56268 -11.5904 0.460571
RightUpLeg  -8.22403 -9.9229 -1.66508
RightLeg  19.4061 -1.44855 0.139295
RightFoot  -9.48822 -0.104199 2.4613
RightToes  -2.9104e-010 0 -3.6325e-017
Spine  16.3505 -2.48653 3.7485
Spine1  -0.305623 -3.77329 6.87404
HEad  -2.24237 15.3012 -11.0477
LeftShoulder1  2.3907 -3.0639 -30.3708
LeftArm  58.7364 -14.3488 -51.2001
LeftForeArm  -7.86334 -14.0899 -14.718
LeftHand  -0.1916 0.509223 4.5414
RightShoulder  11.7247 18.4477 46.6736
RightArm  31.2107 5.89245 24.4673
RightForeArm  20.8232 29.4311 5.24484
RightHand  0.177506 3.851 1.96578
LeftUpLeg  -33.9666 41.3604 -12.5537
LeftLeg  15.9663 4.38822 1.73839
LeftFoot  14.1208 0.816305 -3.99714
LeftToes  5.45371e-012 -1.3743e-010 1.09575e-010
1306
root  20.0834 39.795 -50.2875 -0.704529 -10.6315 -0.928284
RightUpLeg  -6.30795 -8.60879 -0.957888
RightLeg  16.018 -3.79554 0.62489
RightFoot  -8.75048 -0.129625 3.10348
RightToes  -2.9104e-010 0 -3.6325e-017
Spine  15.177 -2.32406 4.22357
Spine1  -0.778381 -3.26245 5.92559
HEad  -2.5921 18.8072 -12.0935
LeftShoulder1  2.15708 -2.36542 -30.7197
LeftArm  46.7036 -10.8763 -45.698
LeftForeArm  -4.61363 -13.5651 -14.5578
LeftHand  -0.149247 0.784747 3.70099
RightShoulder  11.4642 17.8704 46.8837
RightArm  33.4094 4.09332 24.5901
RightForeArm  20.9765 30.1722 5.41088
RightHand  0.171587 3.98451 1.85533
LeftUpLeg  -20.1468 17.359 6.83905
LeftLeg  2.56698 24.2856 -5.72602
LeftFoot  12.3322 0.414308 -2.33791
LeftToes  5.45371e-012 -1.3743e-010 1.09575e-010
1307
root  20.1896 39.8408 -49.7941 -0.162476 -8.39262 -2.39343
RightUpLeg  -4.23202 -7.5514 -0.316866
RightLeg  13.3698 -6.9466 1.26594
RightFoot  -8.48086 -0.149258 3.66881
RightToes  -2.9104e-010 0 -3.6325e-017
Spine  14.2392 -2.43378 3.97811
Spine1  -1.37824 -3.36191 5.90235
HEad  -3.45088 21.2984 -12.5753
LeftShoulder1  1.96098 -1.78134 -31.0678
LeftArm  39.4966 -8.06149 -40.8197
LeftForeArm  -4.38825 -13.462 -14.3593
LeftHand  -0.113466 1.19003 3.00234
RightShoulder  11.1109 16.9995 47.3933
RightArm  36.3655 3.02979 24.4101
RightForeArm  19.8216 29.89 5.40889
RightHand  0.163444 3.95674 1.7617
LeftUpLeg  -16.7972 13.5513 10.6186
LeftLeg  -3.87301 22.6077 -6.00259
LeftFoot  11.6311 0.11877 -0.935261
LeftToes  5.45371e-012 -1.3743e-010 1.09575e-010
1308
root  20.3666 39.8394 -49.3065 0.35968 -4.74345 -3.42627
RightUpLeg  -2.62066 -7.25264 -0.134822
RightLeg  11.5531 -10.6481 1.8678
RightFoot  -8.59373 -0.165749 4.47335
RightToes  -2.9104e-010 0 -3.6325e-017
Spine  13.6298 -2.59877 3.02149
Spine1  -2.24607 -3.71251 6.51564
HEad  -4.76415 21.9217 -12.7224
LeftShoulder1  1.86009 -1.47253 -31.3412
LeftArm  31.8754 -6.87534 -37.1674
LeftForeArm  -1.51882 -11.2856 -15.5247
LeftHand  -0.104423 1.62154 2.99942
RightShoulder  10.387 15.5055 47.8137
RightArm  38.7533 2.28073 24.0692
RightForeArm  17.1985 28.5819 5.24875
RightHand  0.202223 4.00186 2.22906
LeftUpLeg  -16.2349 14.7495 12.1503
LeftLeg  -4.93774 29.6832 -6.44408
LeftFoot  9.99355 0.0137702 -0.397401
LeftToes  5.45371e-012 -1.3743e-010 1.09575e-010
1309
root  20.6186 39.8455 -48.7913 0.76416 0.0273015 -3.90491
RightUpLeg  -0.880839 -7.49377 -0.43238
RightLeg  9.75882 -14.6966 2.35828
RightFoot  -8.79402 -0.185145 5.63297
RightToes  -2.9104e-010 0 -3.6325e-017
Spine  13.0033 -2.72745 2.02391
Spine1  -2.69264 -3.92289 6.49482
HEad  -6.24617 20.662 -12.362
LeftShoulder1  1.83705 -1.42792 -31.2107
LeftArm  26.3177 -6.84013 -35.0613
LeftForeArm  -0.144097 -8.7421 -16.7741
LeftHand  -0.083215 2.46567 2.8481
RightShoulder  9.42546 13.601 48.243
RightArm  40.1791 1.19832 23.4047
RightForeArm  12.9749 26.3949 4.98136
RightHand  0.172315 3.84295 1.90284
LeftUpLeg  -16.1762 16.4001 12.419
LeftLeg  -4.7902 38.0719 -7.67986
LeftFoot  9.37551 -0.506863 2.45945
LeftToes  5.45371e-012 -1.3743e-010 1.09575e-010
1310
root  20.9847 39.8609 -48.227 1.2605 5.18407 -3.89062
RightUpLeg  0.940364 -8.16409 -1.12834
RightLeg  7.86159 -18.6288 2.75237
RightFoot  -8.895 -0.211299 7.05245
RightToes  -2.9104e-010 0 -3.6325e-017
Spine  12.0896 -2.75242 1.34788
Spine1  -2.63493 -3.8298 5.49512
HEad  -7.16746 18.0402 -11.644
LeftShoulder1  1.82946 -1.42918 -31.0462
LeftArm  24.8821 -6.88417 -33.9585
LeftForeArm  -1.0215 -7.71772 -17.3135
LeftHand  -0.070935 2.81378 2.59109
RightShoulder  8.5962 12.0878 48.2813
RightArm  42.1574 -0.702676 22.8161
RightForeArm  6.3462 23.4899 4.72522
RightHand  0.139727 3.57027 1.5584
LeftUpLeg  -16.824 17.8136 11.7303
LeftLeg  -1.93624 39.2997 -7.70203
LeftFoot  7.68834 -0.635335 3.5099
LeftToes  5.45371e-012 -1.3743e-010 1.09575e-010
1311
root  21.4979 39.8389 -47.5683 1.76117 10.3893 -3.586
RightUpLeg  3.02589 -8.94122 -2.16337
RightLeg  6.08738 -22.3299 3.21268
RightFoot  -9.07542 -0.234824 8.7324
RightToes  -2.9104e-010 0 -3.6325e-017
Spine  11.0682 -2.73164 1.02499
Spine1  -2.53707 -3.5558 3.96799
HEad  -6.98627 15.0201 -10.8829
LeftShoulder1  1.77443 -1.26549 -31.1642
LeftArm  26.8508 -6.13621 -33.224
LeftForeArm  -2.74525 -8.41107 -17.1585
LeftHand  -0.0576209 2.72998 1.92657
RightShoulder  7.93834 11.0263 47.8456
RightArm  40.8081 -2.88761 22.115
RightForeArm  4.21873 19.4351 7.47002
RightHand  0.105998 3.29882 1.17659
LeftUpLeg  -18.3541 21.6939 9.02456
LeftLeg  3.57567 33.4485 -5.32926
LeftFoot  5.72379 -0.559932 3.49907
LeftToes  5.45371e-012 -1.3743e-010 1.09575e-010
1312
root  22.2028 39.7467 -46.854 2.25928 14.9108 -2.83356
RightUpLeg  4.9885 -10.085 -3.97527
RightLeg  5.54381 -24.6748 3.43006
RightFoot  -9.81893 -0.215004 11.1117
RightToes  -2.9104e-010 0 -3.6325e-017
Spine  10.0956 -2.4399 0.951091
Spine1  -2.30282 -2.85802 1.75091
HEad  -6.38169 11.9342 -10.1638
LeftShoulder1  1.71271 -1.04528 -31.6079
LeftArm  28.8363 -4.4435 -32.4362
LeftForeArm  -3.28869 -9.75285 -16.5179
LeftHand  -0.0384026 2.12448 0.976844
RightShoulder  7.22635 9.90185 47.2041
RightArm  36.2955 -4.6309 21.2078
RightForeArm  8.786 14.2036 12.0692
RightHand  0.14459 3.12779 1.73921
LeftUpLeg  -19.6554 26.7232 4.52227
LeftLeg  8.2899 24.9353 -2.18151
LeftFoot  4.43791 -0.347264 2.3114
LeftToes  5.45371e-012 -1.3743e-010 1.09575e-010
1313
root  23.0142 39.7656 -46.1315 3.19592 18.562 -1.151
RightUpLeg  7.30536 -11.3257 -6.81996
RightLeg  4.17742 -26.0318 3.99266
RightFoot  -9.79054 -0.250219 13.4918
RightToes  -2.9104e-010 0 -3.6325e-017
Spine  9.06887 -1.92452 -0.346476
Spine1  -1.58235 -1.85829 -0.906792
HEad  -5.30885 8.97804 -9.46764
LeftShoulder1  1.61852 -0.70471 -32.413
LeftArm  30.0683 -1.46277 -31.4129
LeftForeArm  -4.30568 -11.6302 -15.3967
LeftHand  -0.0177742 1.6154 0.281579
RightShoulder  6.61917 8.94795 46.5412
RightArm  34.6276 -6.5656 20.2196
RightForeArm  14.5858 9.5883 15.0714
RightHand  0.217515 3.09247 2.74715
LeftUpLeg  -18.0606 22.4646 3.31467
LeftLeg  7.89607 27.0717 -3.79016
LeftFoot  2.73661 -0.184284 1.35833
LeftToes  5.45371e-012 -1.3743e-010 1.09575e-010
1314
root  23.9412 39.7573 -45.4958 4.27979 22.583 0.617981
RightUpLeg  8.03855 -14.2872 -10.014
RightLeg  6.95504 -25.8417 2.4656
RightFoot  -9.51445 -0.339541 17.0951
RightToes  -2.9104e-010 0 -3.6325e-017
Spine  9.01353 -1.69353 -1.87562
Spine1  -1.73563 -1.46944 -2.1537
HEad  -4.28656 6.35696 -9.4515
LeftShoulder1  1.52385 -0.302781 -33.9701
LeftArm  30.2103 2.0525 -29.7671
LeftForeArm  -5.28901 -13.1438 -14.3374
LeftHand  -0.0140554 1.55751 0.172248
RightShoulder  6.21152 8.26413 46.2079
RightArm  35.8721 -8.81149 18.7999
RightForeArm  18.1316 6.87632 16.4867
RightHand  0.249293 3.16895 3.14757
LeftUpLeg  -17.3082 17.1706 1.11161
LeftLeg  7.42031 28.3363 -4.28903
LeftFoot  2.16618 -0.2553 2.04506
LeftToes  5.45371e-012 -1.3743e-010 1.09575e-010
1315
root  24.9269 39.7361 -44.9284 4.79089 27.3412 1.82245
RightUpLeg  8.27661 -23.4453 -13.3808
RightLeg  12.944 -19.456 -1.8871
RightFoot  -8.13432 -0.694183 22.528
RightToes  -2.9104e-010 0 -3.6325e-017
Spine  9.54732 -1.75328 -2.59822
Spine1  -1.82221 -1.49686 -2.93068
HEad  -4.22242 3.81245 -9.82293
LeftShoulder1  1.54153 -0.21038 -35.4151
LeftArm  28.0029 5.13729 -28.4538
LeftForeArm  -4.37104 -12.6698 -14.5633
LeftHand  -0.00692969 1.45895 -0.0301527
RightShoulder  5.38334 6.82809 45.6033
RightArm  36.0907 -10.1915 17.8838
RightForeArm  19.274 4.26449 17.5927
RightHand  0.271216 3.01136 3.52177
LeftUpLeg  -16.6911 12.4118 -1.19878
LeftLeg  8.2315 28.1344 -3.29419
LeftFoot  0.813412 -0.281357 2.59624
LeftToes  5.45371e-012 -1.3743e-010 1.09575e-010
1316
root  25.8734 39.7629 -44.4148 4.83124 30.7414 2.1106
RightUpLeg  5.86721 -24.6041 -13.9112
RightLeg  21.4395 -17.3358 -7.54757
RightFoot  -4.74633 -1.54588 25.8455
RightToes  -2.9104e-010 0 -3.6325e-017
Spine  9.88111 -1.4057 -2.66091
Spine1  -1.27519 -1.07544 -3.58576
HEad  -4.53007 2.28868 -9.87281
LeftShoulder1  1.52568 -0.129007 -35.8951
LeftArm  22.5675 7.82078 -28.2973
LeftForeArm  -0.344756 -9.87289 -15.9678
LeftHand  -0.00517242 1.74943 -0.141158
RightShoulder  4.85159 5.91353 45.0777
RightArm  34.7947 -11.3713 17.3417
RightForeArm  18.2552 2.36619 18.2129
RightHand  0.319265 2.687 4.3801
LeftUpLeg  -15.3473 9.57974 -2.20433
LeftLeg  8.42008 27.4761 -3.27631
LeftFoot  -0.804797 -0.231599 2.56436
LeftToes  5.45371e-012 -1.3743e-010 1.09575e-010
1317
root  26.855 39.9335 -43.8402 4.57507 33.2647 1.66046
RightUpLeg  0.659183 -18.0628 -12.4228
RightLeg  32.6981 -17.0608 -11.6882
RightFoot  1.76491 -1.74959 15.2532
RightToes  -2.9104e-010 0 -3.6325e-017
Spine  9.52098 -1.21659 -2.39897
Spine1  -0.54481 -0.85977 -3.34119
HEad  -4.04306 2.1604 -9.27569
LeftShoulder1  1.40958 0.108417 -35.4203
LeftArm  18.1011 11.1353 -28.8677
LeftForeArm  2.32511 -6.98872 -17.1178
LeftHand  0.0110127 2.05261 -0.788873
RightShoulder  4.73579 5.66881 45.1815
RightArm  35.3442 -11.8714 16.6261
RightForeArm  15.5854 2.16931 18.4512
RightHand  0.374755 2.27938 5.48798
LeftUpLeg  -12.7965 8.7387 -2.52147
LeftLeg  6.44281 25.5908 -4.43596
LeftFoot  -1.87754 -0.181296 2.32723
LeftToes  5.45371e-012 -1.3743e-010 1.09575e-010
1318
root  27.6934 39.8478 -43.3479 4.54047 35.5454 1.91016
RightUpLeg  -4.16927 -11.7157 -11.5917
RightLeg  41.1007 -9.02309 -8.61112
RightFoot  2.73084 -1.7947 14.6204
RightToes  -2.9104e-010 0 -3.6325e-017
Spine  10.1471 -1.21545 -3.6946
Spine1  -0.659372 -1.14986 -3.18146
HEad  -2.7307 2.70977 -7.98477
LeftShoulder1  1.32711 0.256711 -34.7873
LeftArm  16.3861 14.8961 -29.2941
LeftForeArm  2.90189 -5.06121 -17.8253
LeftHand  0.0420496 2.11445 -1.94187
RightShoulder  4.66869 5.50038 45.3833
RightArm  34.3736 -11.547 16.2506
RightForeArm  16.6141 1.96796 18.3932
RightHand  0.392697 2.21986 5.8096
LeftUpLeg  -11.9239 8.08189 -3.61576
LeftLeg  8.04186 23.7982 -3.44502
LeftFoot  -3.93117 -0.0846471 1.67337
LeftToes  5.45371e-012 -1.3743e-010 1.09575e-010
